MerriweatherSans-ExtraBoldItalic.ufo
<glyph name="exclam" format="1">
  <advance width="686"/>
  <unicode hex="0021"/>
  <outline>
    <contour>
      <point x="201" y="488" type="line"/>
      <point x="459" y="488" type="line"/>
      <point x="702" y="1778" type="line"/>
      <point x="337" y="1778" type="line"/>
    </contour>
    <contour>
      <point x="95" y="123" type="curve" smooth="yes"/>
      <point x="95" y="34"/>
      <point x="154" y="-29"/>
      <point x="251" y="-29" type="curve" smooth="yes"/>
      <point x="380" y="-29"/>
      <point x="464" y="58"/>
      <point x="464" y="189" type="curve" smooth="yes"/>
      <point x="464" y="269"/>
      <point x="421" y="338"/>
      <point x="303" y="338" type="curve" smooth="yes"/>
      <point x="174" y="338"/>
      <point x="95" y="235"/>
    </contour>
  </outline>
</glyph>
<glyph name="numbersign" format="1">
  <advance width="1405"/>
  <unicode hex="0023"/>
  <outline>
    <contour>
      <point x="227" y="0" type="line"/>
      <point x="469" y="0" type="line"/>
      <point x="528" y="321" type="line"/>
      <point x="760" y="321" type="line"/>
      <point x="712" y="0" type="line"/>
      <point x="952" y="0" type="line"/>
      <point x="1006" y="321" type="line"/>
      <point x="1205" y="321" type="line"/>
      <point x="1225" y="549" type="line"/>
      <point x="1038" y="549" type="line"/>
      <point x="1089" y="850" type="line"/>
      <point x="1293" y="850" type="line"/>
      <point x="1312" y="1071" type="line"/>
      <point x="1120" y="1071" type="line"/>
      <point x="1168" y="1357" type="line"/>
      <point x="923" y="1357" type="line"/>
      <point x="873" y="1071" type="line"/>
      <point x="642" y="1071" type="line"/>
      <point x="687" y="1357" type="line"/>
      <point x="442" y="1357" type="line"/>
      <point x="395" y="1071" type="line"/>
      <point x="203" y="1071" type="line"/>
      <point x="184" y="850" type="line"/>
      <point x="364" y="850" type="line"/>
      <point x="314" y="549" type="line"/>
      <point x="128" y="549" type="line"/>
      <point x="108" y="321" type="line"/>
      <point x="282" y="321" type="line"/>
    </contour>
    <contour>
      <point x="560" y="549" type="line"/>
      <point x="611" y="850" type="line"/>
      <point x="842" y="850" type="line"/>
      <point x="792" y="549" type="line"/>
    </contour>
  </outline>
</glyph>
<glyph name="ampersand" format="1">
  <advance width="1565"/>
  <unicode hex="0026"/>
  <outline>
    <contour>
      <point x="5" y="361" type="curve" smooth="yes"/>
      <point x="5" y="100"/>
      <point x="237" y="-16"/>
      <point x="616" y="-16" type="curve" smooth="yes"/>
      <point x="1045" y="-16"/>
      <point x="1421" y="185"/>
      <point x="1421" y="586" type="curve" smooth="yes"/>
      <point x="1421" y="673"/>
      <point x="1398" y="722"/>
      <point x="1379" y="754" type="curve"/>
      <point x="1064" y="689" type="line"/>
      <point x="1079" y="657"/>
      <point x="1095" y="603"/>
      <point x="1095" y="521" type="curve" smooth="yes"/>
      <point x="1095" y="308"/>
      <point x="877" y="218"/>
      <point x="640" y="218" type="curve" smooth="yes"/>
      <point x="474" y="218"/>
      <point x="352" y="257"/>
      <point x="352" y="391" type="curve" smooth="yes"/>
      <point x="352" y="665"/>
      <point x="1161" y="761"/>
      <point x="1161" y="1238" type="curve" smooth="yes"/>
      <point x="1161" y="1374"/>
      <point x="1082" y="1546"/>
      <point x="757" y="1546" type="curve" smooth="yes"/>
      <point x="436" y="1546"/>
      <point x="263" y="1349"/>
      <point x="263" y="1108" type="curve" smooth="yes"/>
      <point x="263" y="965"/>
      <point x="341" y="754"/>
      <point x="415" y="647" type="curve"/>
      <point x="547" y="431"/>
      <point x="610" y="320"/>
      <point x="867" y="93" type="curve" smooth="yes"/>
      <point x="956" y="14"/>
      <point x="1118" y="-16"/>
      <point x="1213" y="-16" type="curve" smooth="yes"/>
      <point x="1284" y="-16"/>
      <point x="1425" y="-8"/>
      <point x="1467" y="8" type="curve"/>
      <point x="1507" y="188" type="line"/>
      <point x="1475" y="187"/>
      <point x="1446" y="187"/>
      <point x="1419" y="189" type="curve" smooth="yes"/>
      <point x="1264" y="199"/>
      <point x="1197" y="246"/>
      <point x="1114" y="312" type="curve" smooth="yes"/>
      <point x="925" y="462"/>
      <point x="776" y="687"/>
      <point x="680" y="858" type="curve"/>
      <point x="655" y="899"/>
      <point x="592" y="1031"/>
      <point x="592" y="1146" type="curve" smooth="yes"/>
      <point x="592" y="1250"/>
      <point x="643" y="1326"/>
      <point x="717" y="1326" type="curve" smooth="yes"/>
      <point x="802" y="1326"/>
      <point x="836" y="1280"/>
      <point x="836" y="1198" type="curve" smooth="yes"/>
      <point x="836" y="861"/>
      <point x="5" y="825"/>
    </contour>
    <contour>
      <point x="991" y="561" type="line"/>
      <point x="1021" y="581"/>
      <point x="1071" y="594"/>
      <point x="1134" y="594" type="curve" smooth="yes"/>
      <point x="1577" y="594" type="line"/>
      <point x="1597" y="829" type="line"/>
      <point x="1150" y="830" type="line" smooth="yes"/>
      <point x="1060" y="830"/>
      <point x="1020" y="808"/>
      <point x="1001" y="785" type="curve"/>
    </contour>
  </outline>
</glyph>
<glyph name="comma" format="1">
  <advance width="526"/>
  <unicode hex="002C"/>
  <outline>
    <contour>
      <point x="125" y="-118" type="curve" smooth="yes"/>
      <point x="125" y="-213"/>
      <point x="65" y="-322"/>
      <point x="-29" y="-371" type="curve"/>
      <point x="-32" y="-392" type="line"/>
      <point x="61" y="-519" type="line"/>
      <point x="274" y="-453"/>
      <point x="403" y="-253"/>
      <point x="403" y="-31" type="curve" smooth="yes"/>
      <point x="403" y="71"/>
      <point x="355" y="237"/>
      <point x="202" y="295" type="curve"/>
      <point x="46" y="107" type="line"/>
      <point x="39" y="53" type="line"/>
      <point x="82" y="35"/>
      <point x="125" y="-30"/>
    </contour>
  </outline>
</glyph>
<glyph name="zero" format="1">
  <advance width="1278"/>
  <unicode hex="0030"/>
  <outline>
    <contour>
      <point x="93" y="450" type="curve" smooth="yes"/>
      <point x="93" y="208"/>
      <point x="227" y="-16"/>
      <point x="539" y="-16" type="curve" smooth="yes"/>
      <point x="905" y="-16"/>
      <point x="1175" y="315"/>
      <point x="1175" y="691" type="curve" smooth="yes"/>
      <point x="1175" y="955"/>
      <point x="1048" y="1156"/>
      <point x="734" y="1156" type="curve" smooth="yes"/>
      <point x="387" y="1156"/>
      <point x="93" y="853"/>
    </contour>
    <contour>
      <point x="427" y="490" type="curve" smooth="yes"/>
      <point x="427" y="641"/>
      <point x="491" y="879"/>
      <point x="700" y="874" type="curve" smooth="yes"/>
      <point x="805" y="873"/>
      <point x="841" y="783"/>
      <point x="841" y="650" type="curve" smooth="yes"/>
      <point x="841" y="472"/>
      <point x="763" y="267"/>
      <point x="584" y="267" type="curve" smooth="yes"/>
      <point x="479" y="267"/>
      <point x="427" y="367"/>
    </contour>
  </outline>
</glyph>
<glyph name="seven" format="1">
  <advance width="1136"/>
  <unicode hex="0037"/>
  <outline>
    <contour>
      <point x="218" y="-242" type="line"/>
      <point x="516" y="-349" type="line"/>
      <point x="1141" y="1074" type="line"/>
      <point x="1092" y="1140" type="line"/>
      <point x="140" y="1140" type="line"/>
      <point x="76" y="867" type="line"/>
      <point x="729" y="867" type="line"/>
    </contour>
  </outline>
</glyph>
<glyph name="F" format="1">
  <advance width="1080"/>
  <unicode hex="0046"/>
  <outline>
    <contour>
      <point x="72" y="0" type="line"/>
      <point x="426" y="0" type="line"/>
      <point x="513" y="609" type="line"/>
      <point x="945" y="602" type="line"/>
      <point x="981" y="893" type="line"/>
      <point x="553" y="887" type="line"/>
      <point x="606" y="1259" type="line"/>
      <point x="1106" y="1255" type="line"/>
      <point x="1148" y="1530" type="line"/>
      <point x="291" y="1530" type="line"/>
    </contour>
    <contour>
      <point x="687" y="-168" type="move" name="btm"/>
    </contour>
    <contour>
      <point x="704" y="1700" type="move" name="top"/>
    </contour>
  </outline>
</glyph>
<glyph name="N" format="1">
  <advance width="1500"/>
  <unicode hex="004E"/>
  <outline>
    <contour>
      <point x="72" y="0" type="line"/>
      <point x="410" y="0" type="line"/>
      <point x="525" y="833" type="line"/>
      <point x="522" y="1108" type="line"/>
      <point x="621" y="833" type="line"/>
      <point x="969" y="0" type="line"/>
      <point x="1266" y="0" type="line"/>
      <point x="1485" y="1530" type="line"/>
      <point x="1143" y="1530" type="line"/>
      <point x="1046" y="738" type="line"/>
      <point x="1033" y="478" type="line"/>
      <point x="954" y="738" type="line"/>
      <point x="598" y="1530" type="line"/>
      <point x="291" y="1530" type="line"/>
    </contour>
    <contour>
      <point x="668" y="-170" type="move" name="btm"/>
    </contour>
    <contour>
      <point x="855" y="1700" type="move" name="top"/>
    </contour>
  </outline>
</glyph>
<glyph name="X" format="1">
  <advance width="1244"/>
  <unicode hex="0058"/>
  <outline>
    <contour>
      <point x="-99" y="0" type="line"/>
      <point x="297" y="0" type="line"/>
      <point x="619" y="530" type="line"/>
      <point x="820" y="-1" type="line"/>
      <point x="1206" y="0" type="line"/>
      <point x="859" y="735" type="line"/>
      <point x="1403" y="1530" type="line"/>
      <point x="1017" y="1530" type="line"/>
      <point x="700" y="1037" type="line"/>
      <point x="523" y="1530" type="line"/>
      <point x="143" y="1530" type="line"/>
      <point x="464" y="808" type="line"/>
    </contour>
    <contour>
      <point x="727" y="-170" type="move" name="btm"/>
    </contour>
    <contour>
      <point x="1023" y="1700" type="move" name="top"/>
    </contour>
  </outline>
</glyph>
<glyph name="asciicircum" format="1">
  <advance width="1364"/>
  <unicode hex="005E"/>
  <outline>
    <contour>
      <point x="126" y="510" type="line"/>
      <point x="401" y="510" type="line"/>
      <point x="759" y="1160" type="line"/>
      <point x="920" y="510" type="line"/>
      <point x="1191" y="510" type="line"/>
      <point x="924" y="1531" type="line"/>
      <point x="657" y="1531" type="line"/>
    </contour>
  </outline>
</glyph>
<glyph name="g" format="1">
  <advance width="1269"/>
  <unicode hex="0067"/>
  <outline>
    <contour>
      <point x="394" y="-517" type="curve" smooth="yes"/>
      <point x="677" y="-517"/>
      <point x="990" y="-421"/>
      <point x="1044" y="-29" type="curve" smooth="yes"/>
      <point x="1208" y="1156" type="line"/>
      <point x="839" y="1068" type="line"/>
      <point x="733" y="289" type="line"/>
      <point x="745" y="289" type="line"/>
      <point x="676" y="-97" type="line" smooth="yes"/>
      <point x="653" y="-221"/>
      <point x="605" y="-308"/>
      <point x="461" y="-308" type="curve" smooth="yes"/>
      <point x="341" y="-308"/>
      <point x="195" y="-236"/>
      <point x="175" y="-217" type="curve"/>
      <point x="123" y="-472" type="line"/>
      <point x="164" y="-491"/>
      <point x="295" y="-517"/>
    </contour>
    <contour>
      <point x="406" y="-16" type="curve" smooth="yes"/>
      <point x="641" y="-16"/>
      <point x="758" y="267"/>
      <point x="779" y="379" type="curve"/>
      <point x="786" y="644" type="line"/>
      <point x="754" y="510"/>
      <point x="642" y="228"/>
      <point x="531" y="228" type="curve" smooth="yes"/>
      <point x="471" y="228"/>
      <point x="442" y="297"/>
      <point x="442" y="433" type="curve" smooth="yes"/>
      <point x="442" y="674"/>
      <point x="542" y="946"/>
      <point x="748" y="946" type="curve" smooth="yes"/>
      <point x="835" y="946"/>
      <point x="908" y="935"/>
      <point x="954" y="860" type="curve"/>
      <point x="1029" y="1108" type="line"/>
      <point x="970" y="1130"/>
      <point x="861" y="1156"/>
      <point x="773" y="1156" type="curve" smooth="yes"/>
      <point x="305" y="1156"/>
      <point x="70" y="781"/>
      <point x="70" y="412" type="curve" smooth="yes"/>
      <point x="70" y="182"/>
      <point x="154" y="-16"/>
    </contour>
    <contour>
      <point x="800" y="1255" type="move" name="top"/>
    </contour>
  </outline>
</glyph>
<glyph name="w" format="1">
  <advance width="1763"/>
  <unicode hex="0077"/>
  <outline>
    <contour>
      <point x="250" y="-21" type="line"/>
      <point x="525" y="-9" type="line"/>
      <point x="545" y="8" type="line" smooth="yes"/>
      <point x="749" y="192"/>
      <point x="867" y="380"/>
      <point x="941" y="576" type="curve"/>
      <point x="779" y="832" type="line"/>
      <point x="751" y="648"/>
      <point x="662" y="462"/>
      <point x="584" y="342" type="curve"/>
      <point x="525" y="266" type="line"/>
      <point x="512" y="475" type="line"/>
      <point x="453" y="1140" type="line"/>
      <point x="92" y="1140" type="line"/>
      <point x="195" y="355" type="line"/>
    </contour>
    <contour>
      <point x="879" y="-21" type="line"/>
      <point x="1138" y="-9" type="line"/>
      <point x="1158" y="8" type="line" smooth="yes"/>
      <point x="1507" y="298"/>
      <point x="1731" y="626"/>
      <point x="1731" y="982" type="curve" smooth="yes"/>
      <point x="1731" y="1090"/>
      <point x="1722" y="1124"/>
      <point x="1720" y="1140" type="curve"/>
      <point x="1402" y="1140" type="line"/>
      <point x="1402" y="1038"/>
      <point x="1386" y="883"/>
      <point x="1376" y="817" type="curve" smooth="yes"/>
      <point x="1347" y="633"/>
      <point x="1281" y="463"/>
      <point x="1204" y="342" type="curve"/>
      <point x="1145" y="266" type="line"/>
      <point x="1132" y="475" type="line"/>
      <point x="1084" y="1140" type="line"/>
      <point x="741" y="1140" type="line"/>
      <point x="823" y="355" type="line"/>
    </contour>
    <contour>
      <point x="944" y="1255" type="move" name="top"/>
    </contour>
  </outline>
</glyph>
<glyph name="yen" format="1">
  <advance width="1469"/>
  <unicode hex="00A5"/>
  <outline>
    <contour>
      <point x="106" y="324" type="line"/>
      <point x="1301" y="324" type="line"/>
      <point x="1317" y="506" type="line"/>
      <point x="125" y="506" type="line"/>
    </contour>
    <contour>
      <point x="146" y="680" type="line"/>
      <point x="1341" y="680" type="line"/>
      <point x="1360" y="862" type="line"/>
      <point x="165" y="862" type="line"/>
    </contour>
    <contour>
      <point x="468" y="0" type="line"/>
      <point x="835" y="0" type="line"/>
      <point x="931" y="680" type="line"/>
      <point x="1517" y="1530" type="line"/>
      <point x="1095" y="1530" type="line"/>
      <point x="820" y="971" type="line"/>
      <point x="774" y="862" type="line"/>
      <point x="746" y="971" type="line"/>
      <point x="579" y="1530" type="line"/>
      <point x="224" y="1530" type="line"/>
      <point x="554" y="680" type="line"/>
    </contour>
  </outline>
</glyph>
<glyph name="degree" format="1">
  <advance width="957"/>
  <unicode hex="00B0"/>
  <outline>
    <contour>
      <point x="570" y="1101" type="curve" smooth="yes"/>
      <point x="479" y="1101"/>
      <point x="408" y="1180"/>
      <point x="410" y="1276" type="curve" smooth="yes"/>
      <point x="411" y="1375"/>
      <point x="481" y="1449"/>
      <point x="577" y="1449" type="curve" smooth="yes"/>
      <point x="668" y="1449"/>
      <point x="740" y="1372"/>
      <point x="738" y="1276" type="curve" smooth="yes"/>
      <point x="737" y="1176"/>
      <point x="666" y="1101"/>
    </contour>
    <contour>
      <point x="561" y="915" type="curve" smooth="yes"/>
      <point x="777" y="915"/>
      <point x="939" y="1069"/>
      <point x="942" y="1275" type="curve" smooth="yes"/>
      <point x="946" y="1473"/>
      <point x="790" y="1634"/>
      <point x="583" y="1634" type="curve" smooth="yes"/>
      <point x="368" y="1634"/>
      <point x="209" y="1479"/>
      <point x="206" y="1275" type="curve" smooth="yes"/>
      <point x="202" y="1077"/>
      <point x="355" y="915"/>
    </contour>
  </outline>
</glyph>
<glyph name="micro" format="1">
  <advance width="1364"/>
  <unicode hex="00B5"/>
  <outline>
    <contour>
      <point x="450" y="60" type="line"/>
      <point x="484" y="-4"/>
      <point x="585" y="-16"/>
      <point x="627" y="-16" type="curve" smooth="yes"/>
      <point x="720" y="-16"/>
      <point x="792" y="29"/>
      <point x="848" y="122" type="curve"/>
      <point x="870" y="11"/>
      <point x="942" y="-18"/>
      <point x="1044" y="-18" type="curve" smooth="yes"/>
      <point x="1218" y="-18"/>
      <point x="1299" y="71"/>
      <point x="1360" y="133" type="curve"/>
      <point x="1282" y="266" type="line"/>
      <point x="1258" y="232"/>
      <point x="1210" y="195"/>
      <point x="1172" y="195" type="curve" smooth="yes"/>
      <point x="1151" y="195"/>
      <point x="1132" y="226"/>
      <point x="1139" y="278" type="curve" smooth="yes"/>
      <point x="1248" y="1140" type="line"/>
      <point x="896" y="1140" type="line"/>
      <point x="802" y="413" type="line" smooth="yes"/>
      <point x="788" y="305"/>
      <point x="677" y="241"/>
      <point x="626" y="241" type="curve" smooth="yes"/>
      <point x="563" y="241"/>
      <point x="506" y="278"/>
      <point x="525" y="435" type="curve" smooth="yes"/>
      <point x="589" y="954" type="line" smooth="yes"/>
      <point x="606" y="1096"/>
      <point x="505" y="1156"/>
      <point x="379" y="1156" type="curve" smooth="yes"/>
      <point x="225" y="1156"/>
      <point x="73" y="1050"/>
      <point x="52" y="1029" type="curve"/>
      <point x="100" y="864" type="line"/>
      <point x="125" y="889"/>
      <point x="150" y="910"/>
      <point x="187" y="910" type="curve" smooth="yes"/>
      <point x="215" y="910"/>
      <point x="223" y="858"/>
      <point x="216" y="801" type="curve" smooth="yes"/>
      <point x="51" y="-372" type="line"/>
      <point x="386" y="-372" type="line"/>
    </contour>
  </outline>
</glyph>
<glyph name="thorn" format="1">
  <advance width="1290"/>
  <unicode hex="00FE"/>
  <outline>
    <contour>
      <point x="402" y="-142" type="line"/>
      <point x="414" y="18" type="line"/>
      <point x="246" y="60" type="line"/>
      <point x="76" y="0" type="line"/>
      <point x="8" y="-492" type="line"/>
      <point x="362" y="-492" type="line"/>
    </contour>
    <component base="b"/>
  </outline>
</glyph>
<glyph name="Eogonek" format="1">
  <advance width="1216"/>
  <unicode hex="0118"/>
  <outline>
    <contour>
      <point x="553" y="-316" type="curve" smooth="yes"/>
      <point x="553" y="-421"/>
      <point x="637" y="-510"/>
      <point x="766" y="-510" type="curve" smooth="yes"/>
      <point x="911" y="-510"/>
      <point x="1014" y="-470"/>
      <point x="1095" y="-387" type="curve"/>
      <point x="1054" y="-212" type="line"/>
      <point x="998" y="-256"/>
      <point x="956" y="-277"/>
      <point x="901" y="-277" type="curve" smooth="yes"/>
      <point x="862" y="-277"/>
      <point x="834" y="-262"/>
      <point x="834" y="-205" type="curve" smooth="yes"/>
      <point x="834" y="-141"/>
      <point x="944" y="-56"/>
      <point x="1080" y="0" type="curve"/>
      <point x="959" y="21" type="line"/>
      <point x="847" y="7" type="line"/>
      <point x="758" y="-23"/>
      <point x="553" y="-162"/>
    </contour>
    <component base="E" xOffset="12"/>
  </outline>
</glyph>
<glyph name="kgreenlandic" format="1">
  <advance width="1225"/>
  <unicode hex="0138"/>
  <outline>
    <contour>
      <point x="76" y="0" type="line"/>
      <point x="433" y="0" type="line"/>
      <point x="588" y="1140" type="line"/>
      <point x="231" y="1140" type="line"/>
    </contour>
    <contour>
      <point x="543" y="630" type="line"/>
      <point x="811" y="0" type="line"/>
      <point x="1196" y="0" type="line"/>
      <point x="838" y="694" type="line"/>
    </contour>
    <contour>
      <point x="811" y="595" type="line"/>
      <point x="911" y="623"/>
      <point x="1094" y="761"/>
      <point x="1179" y="969" type="curve" smooth="yes"/>
      <point x="1201" y="1023"/>
      <point x="1216" y="1080"/>
      <point x="1219" y="1140" type="curve"/>
      <point x="866" y="1140" type="line"/>
      <point x="851" y="1080"/>
      <point x="831" y="1023"/>
      <point x="807" y="968" type="curve" smooth="yes"/>
      <point x="738" y="816"/>
      <point x="677" y="705"/>
      <point x="543" y="631" type="curve"/>
    </contour>
    <contour>
      <point x="573" y="-128" type="move" name="bottom"/>
    </contour>
  </outline>
</glyph>
<glyph name="Lslash" format="1">
  <advance width="1080"/>
  <unicode hex="0141"/>
  <outline>
    <contour>
      <point x="27" y="493" type="line"/>
      <point x="984" y="820" type="line"/>
      <point x="927" y="1013" type="line"/>
      <point x="-31" y="677" type="line"/>
    </contour>
    <component base="L" xOffset="12" yOffset="2"/>
  </outline>
</glyph>
<glyph name="eng" format="1">
  <advance width="1322"/>
  <unicode hex="014B"/>
  <outline>
    <contour>
      <point x="418" y="-370" type="curve"/>
      <point x="380" y="-491" type="line"/>
      <point x="402" y="-515"/>
      <point x="503" y="-528"/>
      <point x="576" y="-528" type="curve" smooth="yes"/>
      <point x="874" y="-528"/>
      <point x="1021" y="-432"/>
      <point x="1094" y="0" type="curve" smooth="yes"/>
      <point x="1132" y="227"/>
      <point x="1206" y="754"/>
      <point x="1206" y="854" type="curve" smooth="yes"/>
      <point x="1206" y="1078"/>
      <point x="1101" y="1156"/>
      <point x="929" y="1156" type="curve" smooth="yes"/>
      <point x="736" y="1156"/>
      <point x="583" y="1018"/>
      <point x="500" y="819" type="curve"/>
      <point x="515" y="668" type="line"/>
      <point x="572" y="799"/>
      <point x="675" y="887"/>
      <point x="754" y="887" type="curve" smooth="yes"/>
      <point x="808" y="887"/>
      <point x="839" y="862"/>
      <point x="835" y="788" type="curve" smooth="yes"/>
      <point x="827" y="624"/>
      <point x="769" y="224"/>
      <point x="737" y="0" type="curve" smooth="yes"/>
      <point x="701" y="-253"/>
      <point x="647" y="-382"/>
      <point x="492" y="-382" type="curve" smooth="yes"/>
      <point x="481" y="-382"/>
      <point x="436" y="-378"/>
    </contour>
    <contour>
      <point x="76" y="0" type="line"/>
      <point x="433" y="0" type="line"/>
      <point x="559" y="912" type="line"/>
      <point x="573" y="1140" type="line"/>
      <point x="232" y="1140" type="line"/>
    </contour>
  </outline>
</glyph>
<glyph name="florin" format="1">
  <advance width="1059"/>
  <unicode hex="0192"/>
  <outline>
    <contour>
      <point x="162" y="-355" type="line"/>
      <point x="510" y="-355" type="line"/>
      <point x="510" y="-352"/>
      <point x="553" y="-39"/>
      <point x="687" y="939" type="curve"/>
      <point x="877" y="939" type="line"/>
      <point x="901" y="1155" type="line"/>
      <point x="712" y="1155" type="line"/>
      <point x="738" y="1299" type="line"/>
      <point x="763" y="1413"/>
      <point x="802" y="1453"/>
      <point x="878" y="1454" type="curve" smooth="yes"/>
      <point x="935" y="1455"/>
      <point x="982" y="1417"/>
      <point x="993" y="1406" type="curve"/>
      <point x="1055" y="1644" type="line"/>
      <point x="1001" y="1666"/>
      <point x="932" y="1670"/>
      <point x="876" y="1670" type="curve" smooth="yes"/>
      <point x="606" y="1670"/>
      <point x="422" y="1493"/>
      <point x="386" y="1245" type="curve"/>
      <point x="369" y="1155" type="line"/>
      <point x="208" y="1125" type="line"/>
      <point x="187" y="939" type="line"/>
      <point x="339" y="939" type="line"/>
    </contour>
  </outline>
</glyph>
<glyph name="tilde" format="1">
  <advance width="824"/>
  <unicode hex="02DC"/>
  <outline>
    <contour>
      <point x="82" y="1365" type="line"/>
      <point x="124" y="1409"/>
      <point x="168" y="1455"/>
      <point x="236" y="1454" type="curve" smooth="yes"/>
      <point x="369" y="1451"/>
      <point x="354" y="1300"/>
      <point x="550" y="1300" type="curve" smooth="yes"/>
      <point x="667" y="1300"/>
      <point x="801" y="1414"/>
      <point x="840" y="1509" type="curve"/>
      <point x="721" y="1654" type="line"/>
      <point x="679" y="1602"/>
      <point x="644" y="1544"/>
      <point x="561" y="1544" type="curve" smooth="yes"/>
      <point x="451" y="1544"/>
      <point x="444" y="1698"/>
      <point x="272" y="1698" type="curve" smooth="yes"/>
      <point x="161" y="1698"/>
      <point x="21" y="1592"/>
      <point x="-24" y="1501" type="curve"/>
    </contour>
    <contour>
      <point x="387" y="1255" type="move" name="_top"/>
    </contour>
  </outline>
</glyph>
<glyph name="hungarumlaut" format="1">
  <advance width="926"/>
  <unicode hex="02DD"/>
  <outline>
    <contour>
      <point x="280" y="1223" type="line"/>
      <point x="382" y="1273"/>
      <point x="588" y="1511"/>
      <point x="615" y="1616" type="curve"/>
      <point x="405" y="1753" type="line"/>
      <point x="141" y="1306" type="line"/>
    </contour>
    <contour>
      <point x="759" y="1223" type="line"/>
      <point x="864" y="1271"/>
      <point x="1086" y="1504"/>
      <point x="1114" y="1610" type="curve"/>
      <point x="898" y="1753" type="line"/>
      <point x="629" y="1306" type="line"/>
    </contour>
    <contour>
      <point x="534" y="1255" type="move" name="_top"/>
    </contour>
  </outline>
</glyph>
<glyph name="dagger" format="1">
  <advance width="815"/>
  <unicode hex="2020"/>
  <outline>
    <contour>
      <point x="245" y="151" type="line"/>
      <point x="462" y="151" type="line"/>
      <point x="595" y="944" type="line"/>
      <point x="611" y="1063" type="line"/>
      <point x="852" y="1063" type="line"/>
      <point x="885" y="1277" type="line"/>
      <point x="632" y="1277" type="line"/>
      <point x="673" y="1469" type="line"/>
      <point x="703" y="1646" type="line"/>
      <point x="453" y="1646" type="line"/>
      <point x="429" y="1469" type="line"/>
      <point x="407" y="1277" type="line"/>
      <point x="157" y="1277" type="line"/>
      <point x="123" y="1063" type="line"/>
      <point x="362" y="1063" type="line"/>
      <point x="346" y="944" type="line"/>
    </contour>
  </outline>
</glyph>
<glyph name="ellipsis" format="1">
  <advance width="1578"/>
  <unicode hex="2026"/>
  <outline>
    <contour>
      <point x="30" y="123" type="curve" smooth="yes"/>
      <point x="30" y="34"/>
      <point x="89" y="-29"/>
      <point x="186" y="-29" type="curve" smooth="yes"/>
      <point x="315" y="-29"/>
      <point x="399" y="58"/>
      <point x="399" y="189" type="curve" smooth="yes"/>
      <point x="399" y="269"/>
      <point x="356" y="338"/>
      <point x="238" y="338" type="curve" smooth="yes"/>
      <point x="109" y="338"/>
      <point x="30" y="235"/>
    </contour>
    <contour>
      <point x="556" y="123" type="curve" smooth="yes"/>
      <point x="556" y="34"/>
      <point x="615" y="-29"/>
      <point x="712" y="-29" type="curve" smooth="yes"/>
      <point x="841" y="-29"/>
      <point x="925" y="58"/>
      <point x="925" y="189" type="curve" smooth="yes"/>
      <point x="925" y="269"/>
      <point x="882" y="338"/>
      <point x="764" y="338" type="curve" smooth="yes"/>
      <point x="635" y="338"/>
      <point x="556" y="235"/>
    </contour>
    <contour>
      <point x="1082" y="123" type="curve" smooth="yes"/>
      <point x="1082" y="34"/>
      <point x="1141" y="-29"/>
      <point x="1238" y="-29" type="curve" smooth="yes"/>
      <point x="1367" y="-29"/>
      <point x="1451" y="58"/>
      <point x="1451" y="189" type="curve" smooth="yes"/>
      <point x="1451" y="269"/>
      <point x="1408" y="338"/>
      <point x="1290" y="338" type="curve" smooth="yes"/>
      <point x="1161" y="338"/>
      <point x="1082" y="235"/>
    </contour>
  </outline>
</glyph>
<glyph name="minute" format="1">
  <advance width="623"/>
  <unicode hex="2032"/>
  <outline>
    <contour>
      <point x="225" y="1190" type="line"/>
      <point x="463" y="1190" type="line"/>
      <point x="654" y="1782" type="line"/>
      <point x="349" y="1782" type="line"/>
    </contour>
  </outline>
</glyph>
<glyph name="colonsign" format="1">
  <advance width="1414"/>
  <unicode hex="20A1"/>
  <outline>
    <contour>
      <point x="652" y="-343" type="line"/>
      <point x="543" y="-343" type="line"/>
      <point x="595" y="4" type="line"/>
      <point x="302" y="82"/>
      <point x="203" y="370"/>
      <point x="203" y="642" type="curve" smooth="yes"/>
      <point x="203" y="1114"/>
      <point x="461" y="1452"/>
      <point x="826" y="1529" type="curve"/>
      <point x="869" y="1813" type="line"/>
      <point x="978" y="1813" type="line"/>
      <point x="937" y="1544" type="line"/>
      <point x="954" y="1545"/>
      <point x="970" y="1546"/>
      <point x="987" y="1546" type="curve" smooth="yes"/>
      <point x="1010" y="1546"/>
      <point x="1031" y="1545"/>
      <point x="1051" y="1544" type="curve"/>
      <point x="1092" y="1813" type="line"/>
      <point x="1201" y="1813" type="line"/>
      <point x="1159" y="1535" type="line"/>
      <point x="1242" y="1524"/>
      <point x="1297" y="1507"/>
      <point x="1353" y="1492" type="curve"/>
      <point x="1281" y="1247" type="line"/>
      <point x="1261" y="1266"/>
      <point x="1203" y="1287"/>
      <point x="1123" y="1302" type="curve"/>
      <point x="959" y="213" type="line"/>
      <point x="1051" y="234"/>
      <point x="1124" y="274"/>
      <point x="1192" y="317" type="curve"/>
      <point x="1258" y="133" type="line"/>
      <point x="1197" y="73"/>
      <point x="1079" y="20"/>
      <point x="926" y="-3" type="curve"/>
      <point x="875" y="-343" type="line"/>
      <point x="765" y="-343" type="line"/>
      <point x="815" y="-14" type="line"/>
      <point x="796" y="-15"/>
      <point x="776" y="-16"/>
      <point x="757" y="-16" type="curve" smooth="yes"/>
      <point x="738" y="-16"/>
      <point x="721" y="-15"/>
      <point x="702" y="-14" type="curve"/>
    </contour>
    <contour>
      <point x="814" y="197" type="curve" smooth="yes"/>
      <point x="825" y="197"/>
      <point x="836" y="197"/>
      <point x="847" y="198" type="curve"/>
      <point x="1016" y="1314" type="line"/>
      <point x="1003" y="1314"/>
      <point x="990" y="1315"/>
      <point x="977" y="1315" type="curve" smooth="yes"/>
      <point x="952" y="1315"/>
      <point x="926" y="1312"/>
      <point x="901" y="1307" type="curve"/>
      <point x="735" y="206" type="line"/>
      <point x="759" y="200"/>
      <point x="785" y="197"/>
    </contour>
    <contour>
      <point x="527" y="652" type="curve"/>
      <point x="523" y="473"/>
      <point x="554" y="338"/>
      <point x="634" y="262" type="curve"/>
      <point x="785" y="1261" type="line"/>
      <point x="627" y="1163"/>
      <point x="532" y="936"/>
    </contour>
  </outline>
</glyph>
<glyph name="sheqel" format="1">
  <advance width="1989"/>
  <unicode hex="20AA"/>
  <outline>
    <contour>
      <point x="1687" y="1522" type="line"/>
      <point x="1977" y="1522" type="line"/>
      <point x="1761" y="0" type="line"/>
      <point x="954" y="0" type="line" smooth="yes"/>
      <point x="726" y="0"/>
      <point x="518" y="91"/>
      <point x="545" y="326" type="curve"/>
      <point x="676" y="1166" type="line"/>
      <point x="968" y="1166" type="line"/>
      <point x="845" y="386" type="line"/>
      <point x="829" y="240"/>
      <point x="916" y="204"/>
      <point x="1156" y="204" type="curve" smooth="yes"/>
      <point x="1498" y="204" type="line"/>
    </contour>
    <contour>
      <point x="301" y="0" type="line"/>
      <point x="19" y="0" type="line"/>
      <point x="255" y="1522" type="line"/>
      <point x="1119" y="1522" type="line" smooth="yes"/>
      <point x="1424" y="1522"/>
      <point x="1479" y="1308"/>
      <point x="1455" y="1102" type="curve"/>
      <point x="1330" y="367" type="line"/>
      <point x="1039" y="367" type="line"/>
      <point x="1162" y="1059" type="line"/>
      <point x="1183" y="1239"/>
      <point x="1136" y="1317"/>
      <point x="945" y="1317" type="curve" smooth="yes"/>
      <point x="521" y="1317" type="line"/>
    </contour>
  </outline>
</glyph>
<glyph name="integral" format="1">
  <advance width="1087"/>
  <unicode hex="222B"/>
  <outline>
    <contour>
      <point x="209" y="-175" type="curve"/>
      <point x="106" y="-387" type="line"/>
      <point x="155" y="-462"/>
      <point x="317" y="-518"/>
      <point x="439" y="-518" type="curve" smooth="yes"/>
      <point x="796" y="-518"/>
      <point x="940" y="-257"/>
      <point x="936" y="-2" type="curve" smooth="yes"/>
      <point x="929" y="426"/>
      <point x="515" y="809"/>
      <point x="509" y="1196" type="curve" smooth="yes"/>
      <point x="506" y="1356"/>
      <point x="580" y="1448"/>
      <point x="720" y="1448" type="curve" smooth="yes"/>
      <point x="806" y="1448"/>
      <point x="882" y="1394"/>
      <point x="896" y="1364" type="curve"/>
      <point x="1027" y="1547" type="line"/>
      <point x="977" y="1631"/>
      <point x="836" y="1684"/>
      <point x="701" y="1684" type="curve" smooth="yes"/>
      <point x="340" y="1684"/>
      <point x="183" y="1459"/>
      <point x="188" y="1181" type="curve" smooth="yes"/>
      <point x="194" y="758"/>
      <point x="607" y="365"/>
      <point x="613" y="-25" type="curve" smooth="yes"/>
      <point x="616" y="-168"/>
      <point x="574" y="-274"/>
      <point x="419" y="-274" type="curve" smooth="yes"/>
      <point x="335" y="-274"/>
      <point x="234" y="-213"/>
    </contour>
  </outline>
</glyph>
<glyph name="ij_acutecomb" format="1">
  <advance width="1328"/>
  <outline>
    <contour>
      <point x="80" y="0" type="line"/>
      <point x="437" y="0" type="line"/>
      <point x="595" y="1140" type="line"/>
      <point x="236" y="1140" type="line"/>
    </contour>
    <contour>
      <point x="439" y="1226" type="line"/>
      <point x="560" y="1272"/>
      <point x="822" y="1506"/>
      <point x="858" y="1574" type="curve"/>
      <point x="649" y="1774" type="line"/>
      <point x="315" y="1325" type="line"/>
    </contour>
    <contour>
      <point x="753" y="65" type="line"/>
      <point x="723" y="-139"/>
      <point x="696" y="-322"/>
      <point x="516" y="-322" type="curve" smooth="yes"/>
      <point x="511" y="-322"/>
      <point x="491" y="-322"/>
      <point x="478" y="-313" type="curve"/>
      <point x="390" y="-494" type="line"/>
      <point x="420" y="-517"/>
      <point x="492" y="-528"/>
      <point x="570" y="-528" type="curve" smooth="yes"/>
      <point x="821" y="-528"/>
      <point x="1054" y="-347"/>
      <point x="1101" y="0" type="curve" smooth="yes"/>
      <point x="1259" y="1140" type="line"/>
      <point x="900" y="1140" type="line"/>
    </contour>
    <component base="acute" xOffset="945"/>
  </outline>
</glyph>
<glyph name="two.numr" format="1">
  <advance width="1163"/>
  <outline>
    <contour>
      <point x="224" y="546" type="line"/>
      <point x="1072" y="546" type="line"/>
      <point x="1089" y="792" type="line"/>
      <point x="624" y="766" type="line"/>
      <point x="902" y="916"/>
      <point x="1075" y="1183"/>
      <point x="1075" y="1358" type="curve" smooth="yes"/>
      <point x="1075" y="1537"/>
      <point x="932" y="1647"/>
      <point x="689" y="1647" type="curve" smooth="yes"/>
      <point x="479" y="1647"/>
      <point x="286" y="1538"/>
      <point x="228" y="1458" type="curve"/>
      <point x="340" y="1313" type="line"/>
      <point x="392" y="1360"/>
      <point x="486" y="1411"/>
      <point x="619" y="1411" type="curve" smooth="yes"/>
      <point x="691" y="1411"/>
      <point x="731" y="1375"/>
      <point x="731" y="1300" type="curve" smooth="yes"/>
      <point x="731" y="1133"/>
      <point x="317" y="808"/>
      <point x="151" y="721" type="curve"/>
    </contour>
  </outline>
</glyph>
